<svg xmlns="http://www.w3.org/2000/svg" width="41.969" height="41.969" viewBox="0 0 41.969 41.969">
  <path id="facebook" d="M6.148,41.969H19.837V27.05H14.919V22.132h4.918V15.984a6.155,6.155,0,0,1,6.148-6.148h6.148v4.918H27.214a2.462,2.462,0,0,0-2.459,2.459v4.918H31.91l-.82,4.918H24.755V41.969H35.821a6.155,6.155,0,0,0,6.148-6.148V6.148A6.155,6.155,0,0,0,35.821,0H6.148A6.155,6.155,0,0,0,0,6.148V35.821A6.155,6.155,0,0,0,6.148,41.969ZM2.459,6.148A3.693,3.693,0,0,1,6.148,2.459H35.821a3.693,3.693,0,0,1,3.689,3.689V35.821a3.693,3.693,0,0,1-3.689,3.689H27.214v-10h5.96l1.639-9.836h-7.6V17.214h7.377V7.377H25.984a8.616,8.616,0,0,0-8.607,8.607v3.689H12.459v9.836h4.918v10H6.148a3.693,3.693,0,0,1-3.689-3.689Zm0,0" fill="#f6f7f9"/>
</svg>
