<svg xmlns="http://www.w3.org/2000/svg" width="51.277" height="41.969" viewBox="0 0 51.277 41.969">
  <path id="twitter" d="M51.277,5.605c-3.226.149-3.155.137-3.52.167L49.668.317S43.7,2.51,42.193,2.9A11.964,11.964,0,0,0,28.1,1.77,9.759,9.759,0,0,0,23.412,11.8,26.028,26.028,0,0,1,6.551,2.311L5.136.612,4.079,2.553a11.731,11.731,0,0,0-1.25,7.9,11.346,11.346,0,0,0,1.1,3.083l-1.214-.47L2.571,15.09a10.819,10.819,0,0,0,1.835,6.431,11.436,11.436,0,0,0,1.429,1.762l-.627-.1.765,2.323a11.3,11.3,0,0,0,5.806,6.727c-2.708,1.149-4.895,1.882-8.49,3.065L0,36.385l3.038,1.661a31.89,31.89,0,0,0,9.3,3.383c8.99,1.41,19.112.262,25.926-5.875C44,30.384,45.883,23.032,45.492,15.38a4.781,4.781,0,0,1,.894-3.113c1.273-1.7,4.884-6.651,4.892-6.662Zm-7.294,4.862a7.786,7.786,0,0,0-1.489,5.065c.395,7.718-1.705,13.7-6.242,17.79C30.952,38.1,22.4,39.97,12.8,38.463A23.257,23.257,0,0,1,7.774,36.97a79.675,79.675,0,0,0,9.1-3.741l5.248-2.484-5.794-.371a8.194,8.194,0,0,1-6.507-3.706,10.392,10.392,0,0,0,2.206-.368l5.526-1.539L11.982,23.4a8.3,8.3,0,0,1-5.069-3.526,8.5,8.5,0,0,1-1.1-2.424,13.909,13.909,0,0,0,2.26.361l5.157.51L9.146,15.13A8.6,8.6,0,0,1,5.887,6.067c9.189,9.531,19.978,8.814,21.064,9.066a17.789,17.789,0,0,0-.308-2.548,6.9,6.9,0,0,1,3.032-8.258A8.973,8.973,0,0,1,40.262,5.2a2.688,2.688,0,0,0,2.467.66,20.764,20.764,0,0,0,2.033-.618l-1.3,3.7H45.12c-.312.419-.687.92-1.137,1.521Zm0,0" transform="translate(0 0)" fill="#f6f7f9"/>
</svg>
