<svg id="whatsapp" xmlns="http://www.w3.org/2000/svg" width="41.8" height="41.8" viewBox="0 0 41.8 41.8">
  <path id="Path_4" data-name="Path 4" d="M10.11,38.818a20.747,20.747,0,0,0,10.716,2.968A21.007,21.007,0,0,0,41.8,20.893a20.893,20.893,0,1,0-38.817,10.8L0,41.8ZM2.464,20.893a18.356,18.356,0,1,1,8.485,15.564l-.471-.3L3.622,38.18l2.023-6.857-.3-.47a18.441,18.441,0,0,1-2.88-9.959Zm0,0" transform="translate(0 -0.001)" fill="#f6f7f9"/>
  <path id="Path_5" data-name="Path 5" d="M121.413,102.143a18.457,18.457,0,0,0,14.8,14.8c2.432.463,6,.533,7.745-1.211l.972-.972a2.6,2.6,0,0,0,0-3.675l-3.888-3.888a2.6,2.6,0,0,0-3.676,0l-.972.972a1.729,1.729,0,0,1-2.313.007l-3.879-4.041-.018-.018a1.527,1.527,0,0,1,0-2.157l.972-.972a2.6,2.6,0,0,0,0-3.676l-3.888-3.888a2.6,2.6,0,0,0-3.675,0l-.972.972h0c-1.392,1.392-1.856,4.36-1.211,7.746Zm2.943-6.014c1.021-1,.966-1.016,1.079-1.016a.15.15,0,0,1,.107.044c4.1,4.119,3.933,3.877,3.933,4a.147.147,0,0,1-.044.107l-.972.972a3.972,3.972,0,0,0-.01,5.61l3.881,4.044.018.018a4.176,4.176,0,0,0,5.783,0l.972-.972a.151.151,0,0,1,.213,0c4.1,4.119,3.933,3.877,3.933,3.995a.146.146,0,0,1-.044.107l-.972.972c-.666.666-2.788,1.065-5.556.538a16.009,16.009,0,0,1-12.856-12.856c-.527-2.768-.129-4.89.537-5.556Zm0,0" transform="translate(-111.238 -85.1)" fill="#f6f7f9"/>
</svg>
